<?xml version="1.0" encoding="UTF-8" standalone="no"?>
<svg
   xmlns:dc="http://purl.org/dc/elements/1.1/"
   xmlns:cc="http://creativecommons.org/ns#"
   xmlns:rdf="http://www.w3.org/1999/02/22-rdf-syntax-ns#"
   xmlns:svg="http://www.w3.org/2000/svg"
   xmlns="http://www.w3.org/2000/svg"
   xmlns:sodipodi="http://sodipodi.sourceforge.net/DTD/sodipodi-0.dtd"
   xmlns:inkscape="http://www.inkscape.org/namespaces/inkscape"
   version="1.1"
   height="600"
   width="600"
   id="svg3163"
   inkscape:version="0.48.5 r10040"
   sodipodi:docname="8Query_logo.svg"
   inkscape:export-filename="R:\8Query_logo.png"
   inkscape:export-xdpi="60"
   inkscape:export-ydpi="60">
  <metadata
     id="metadata3301">
    <rdf:RDF>
      <cc:Work
         rdf:about="">
        <dc:format>image/svg+xml</dc:format>
        <dc:type
           rdf:resource="http://purl.org/dc/dcmitype/StillImage" />
        <dc:title />
      </cc:Work>
    </rdf:RDF>
  </metadata>
  <defs
     id="defs3299" />
  <sodipodi:namedview
     pagecolor="#ffffff"
     bordercolor="#666666"
     borderopacity="1"
     objecttolerance="10"
     gridtolerance="10"
     guidetolerance="10"
     inkscape:pageopacity="0"
     inkscape:pageshadow="2"
     inkscape:window-width="1920"
     inkscape:window-height="1028"
     id="namedview3297"
     showgrid="false"
     inkscape:zoom="0.90753402"
     inkscape:cx="30.748192"
     inkscape:cy="448.1862"
     inkscape:window-x="-8"
     inkscape:window-y="-8"
     inkscape:window-maximized="1"
     inkscape:current-layer="svg3163" />
  <path
     d="m -397.62215,288.77139 c -8.335,11.98 -7.2974,27.566 -0.93018,40.295 0.15138,0.30518 0.31006,0.60546 0.46631,0.90576 0.10012,0.19043 0.19409,0.38574 0.29785,0.57373 0.0586,0.11225 0.1245,0.22216 0.18555,0.32959 0.10862,0.20263 0.21972,0.39551 0.33202,0.59326 0.19776,0.34912 0.4004,0.6958 0.60791,1.0425 0.11475,0.19042 0.22828,0.38085 0.34669,0.57128 0.22949,0.37109 0.46509,0.7373 0.70556,1.1035 0.10012,0.15625 0.19775,0.3125 0.30029,0.46386 0.33204,0.49561 0.67139,0.98877 1.0217,1.4746 0.009,0.0125 0.0182,0.0269 0.0292,0.039 0.055,0.0781 0.116,0.15381 0.17212,0.23194 0.30274,0.41747 0.61524,0.83007 0.9314,1.2378 0.116,0.14892 0.23315,0.29785 0.35034,0.44677 0.28199,0.35401 0.56885,0.70558 0.8606,1.0571 0.10862,0.13184 0.2185,0.26366 0.32836,0.39306 0.39185,0.46143 0.79101,0.92041 1.1987,1.3696 0.007,0.007 0.0171,0.0171 0.0244,0.0244 0.0171,0.0195 0.0317,0.0317 0.0464,0.0512 0.39795,0.43457 0.80566,0.85937 1.2183,1.2842 0.12816,0.13184 0.25879,0.26368 0.39062,0.39308 0.31982,0.32226 0.64452,0.63965 0.9729,0.95458 0.13305,0.12695 0.26489,0.25635 0.39795,0.37842 0.43822,0.4126 0.88134,0.81787 1.333,1.2134 0.007,0.007 0.0134,0.0125 0.0207,0.0171 0.0769,0.0684 0.15625,0.13184 0.23194,0.19775 0.39795,0.34424 0.80322,0.68604 1.2109,1.023 0.16601,0.13428 0.33448,0.26612 0.50171,0.40039 0.33325,0.26611 0.67016,0.52979 1.0095,0.78858 0.17945,0.13672 0.35889,0.27343 0.53956,0.41016 0.37475,0.27587 0.75195,0.54687 1.1328,0.81299 0.13915,0.10012 0.27344,0.19775 0.41259,0.29296 0.039,0.0269 0.0745,0.0537 0.1135,0.0806 0.36134,0.24902 0.7312,0.48827 1.0999,0.72754 0.15869,0.105 0.31616,0.21483 0.47608,0.31737 0.5664,0.35889 1.1414,0.7129 1.7224,1.0547 0.15746,0.0904 0.31738,0.17822 0.47606,0.26856 0.42725,0.24658 0.85694,0.48828 1.2927,0.7251 0.2356,0.12695 0.4773,0.24658 0.71534,0.36865 0.30761,0.16113 0.61279,0.3247 0.92529,0.48095 0.0708,0.0343 0.14405,0.0684 0.21362,0.1025 0.12574,0.061 0.25269,0.11963 0.37842,0.18311 0.48461,0.23194 0.9729,0.45899 1.4661,0.67872 0.105,0.0464 0.2063,0.0928 0.31006,0.13916 0.56518,0.24657 1.1352,0.48339 1.7102,0.71045 0.13794,0.0561 0.2771,0.10987 0.41626,0.16356 0.53222,0.20509 1.0718,0.40773 1.6138,0.59815 0.0684,0.0244 0.13429,0.0464 0.20264,0.0707 0.59449,0.20753 1.1951,0.40039 1.7993,0.58838 0.14404,0.0415 0.2893,0.0879 0.43456,0.1294 0.61524,0.18555 1.2232,0.40771 1.8579,0.5249 40.31,7.3511 52.019,-24.224 52.019,-24.224 -9.834,12.812 -27.29,16.191 -43.829,12.429 -0.62622,-0.1416 -1.2341,-0.33691 -1.8457,-0.51758 -0.15504,-0.0464 -0.30762,-0.0927 -0.46021,-0.13916 -0.59692,-0.1831 -1.189,-0.37597 -1.7773,-0.57861 -0.0806,-0.0292 -0.16236,-0.0586 -0.24415,-0.0879 -0.52734,-0.18555 -1.0486,-0.38086 -1.5674,-0.58105 -0.14649,-0.0586 -0.29298,-0.11475 -0.43945,-0.17334 -0.56885,-0.22461 -1.134,-0.45899 -1.6919,-0.70312 -0.11475,-0.0489 -0.22461,-0.10013 -0.33814,-0.14894 -0.47974,-0.21728 -0.95459,-0.437 -1.427,-0.66406 -0.13671,-0.0659 -0.27344,-0.12939 -0.4126,-0.19775 -0.371,-0.181 -0.738,-0.374 -1.104,-0.562 -0.245,-0.129 -0.494,-0.251 -0.737,-0.386 -0.447,-0.239 -0.886,-0.488 -1.323,-0.742 -0.148,-0.083 -0.298,-0.163 -0.447,-0.249 -0.581,-0.342 -1.155,-0.696 -1.723,-1.055 -0.157,-0.1 -0.31,-0.207 -0.465,-0.31 -0.412,-0.266 -0.822,-0.537 -1.226,-0.815 -0.134,-0.091 -0.263,-0.188 -0.395,-0.278 -0.39,-0.276 -0.776,-0.555 -1.159,-0.838 -0.174,-0.129 -0.345,-0.259 -0.514,-0.388 -0.351,-0.269 -0.7,-0.54 -1.046,-0.818 -0.15625,-0.1245 -0.3125,-0.24902 -0.46631,-0.37354 -0.43945,-0.36132 -0.87402,-0.7251 -1.3025,-1.0986 -0.0451,-0.039 -0.094,-0.0781 -0.14282,-0.11963 -0.46386,-0.40771 -0.91919,-0.8252 -1.3696,-1.2451 -0.13062,-0.1245 -0.25758,-0.24659 -0.38575,-0.3711 -0.33325,-0.31738 -0.66161,-0.6372 -0.98389,-0.96435 -0.12939,-0.1294 -0.25879,-0.25635 -0.38574,-0.38575 -0.41015,-0.41991 -0.81299,-0.84473 -1.2073,-1.2768 -0.0195,-0.022 -0.0402,-0.0415 -0.0598,-0.0635 -0.41749,-0.45655 -0.8252,-0.92285 -1.2244,-1.394 -0.10862,-0.12939 -0.21362,-0.2539 -0.32105,-0.38085 -0.29785,-0.35889 -0.59326,-0.72266 -0.88135,-1.0889 -0.108,-0.132 -0.216,-0.267 -0.323,-0.403 -0.347,-0.45 -0.686,-0.899 -1.018,-1.355 -9.1823,-12.525 -12.481,-29.8 -5.142,-43.987"
     id="path3257"
     inkscape:connector-curvature="0"
     style="fill:#0868ac;fill-rule:nonzero" />
  <path
     d="m -371.74865,278.67839 c -6.0278,8.6743 -5.7007,20.286 -0.99854,29.46 0.78858,1.5381 1.6748,3.0298 2.666,4.4507 0.90331,1.2939 1.9043,2.8345 3.103,3.8745 0.43458,0.47852 0.88868,0.94482 1.3525,1.4038 0.11712,0.11963 0.23681,0.23438 0.35645,0.35157 0.45044,0.43701 0.9082,0.8667 1.3818,1.2842 0.0195,0.0146 0.0366,0.0341 0.0561,0.0489 0.005,0.005 0.01,0.007 0.0134,0.0125 0.52368,0.45899 1.0644,0.90089 1.6138,1.3354 0.12212,0.0927 0.24292,0.19044 0.36621,0.28565 0.55054,0.42237 1.1121,0.8374 1.6882,1.2329 0.0171,0.0125 0.0318,0.0244 0.0489,0.0366 0.25391,0.17578 0.5127,0.33936 0.77026,0.50781 0.12325,0.0806 0.24049,0.16602 0.365,0.2417 0.41138,0.26367 0.82762,0.52002 1.2512,0.7666 0.0599,0.0366 0.11838,0.0684 0.177,0.1025 0.365,0.20995 0.73486,0.41747 1.106,0.61767 0.12939,0.0732 0.26122,0.13672 0.39306,0.20508 0.25635,0.13427 0.5127,0.271 0.77392,0.40039 0.039,0.0195 0.0794,0.0366 0.11712,0.0538 0.53101,0.26122 1.0669,0.5127 1.6138,0.75195 0.11712,0.0513 0.23804,0.0976 0.35644,0.14648 0.43701,0.18555 0.87891,0.36622 1.3232,0.53712 0.18799,0.0708 0.37841,0.13916 0.5664,0.20751 0.40284,0.14892 0.80689,0.28565 1.2146,0.42236 0.18432,0.0586 0.365,0.11963 0.54932,0.17579 0.57982,0.18066 1.1523,0.40771 1.7566,0.50781 31.123,5.1562 38.308,-18.806 38.308,-18.806 -6.477,9.3286 -19.02,13.779 -32.405,10.305 -0.59449,-0.15625 -1.1804,-0.32715 -1.7627,-0.51027 -0.17822,-0.0537 -0.35279,-0.11225 -0.52979,-0.17088 -0.41381,-0.13429 -0.82519,-0.27589 -1.2329,-0.42482 -0.18676,-0.0684 -0.37352,-0.13671 -0.55664,-0.20751 -0.44678,-0.1709 -0.88868,-0.34912 -1.3269,-0.53467 -0.11962,-0.0513 -0.24049,-0.0976 -0.35768,-0.15137 -0.54931,-0.23926 -1.0901,-0.49072 -1.6235,-0.7544 -0.27466,-0.13427 -0.54444,-0.27587 -0.81421,-0.41503 -0.15625,-0.0805 -0.31372,-0.16113 -0.46998,-0.2417 -0.34668,-0.18799 -0.69091,-0.3833 -1.0303,-0.58105 -0.0805,-0.0464 -0.16479,-0.0904 -0.24658,-0.13917 -0.42115,-0.24658 -0.83619,-0.50048 -1.2476,-0.76171 -0.12695,-0.0806 -0.24902,-0.16846 -0.37598,-0.25147 -0.271,-0.17578 -0.54199,-0.354 -0.8081,-0.53467 -0.57374,-0.39551 -1.1316,-0.81055 -1.6821,-1.2305 -0.12695,-0.10013 -0.2539,-0.19775 -0.37841,-0.29785 -5.859,-4.626 -10.503,-10.947 -12.711,-18.115 -2.314,-7.434 -1.815,-15.779 2.194,-22.551"
     id="path3259"
     inkscape:connector-curvature="0"
     style="fill:#0868ac;fill-rule:nonzero" />
  <path
     d="m -349.98765,271.13739 c -3.5535,5.2295 -3.9026,11.724 -1.4368,17.5 2.6001,6.1304 7.9285,10.94 14.147,13.22 0.25635,0.0953 0.5127,0.18066 0.77271,0.26855 0.1135,0.0342 0.22582,0.0733 0.34058,0.10737 0.36621,0.11475 0.72998,0.24903 1.1084,0.31983 17.185,3.3203 21.846,-8.8184 23.087,-10.605 -4.0832,5.8789 -10.945,7.29 -19.364,5.2466 -0.665,-0.162 -1.396,-0.402 -2.037,-0.629 -0.822,-0.293 -1.632,-0.627 -2.419,-1.005 -1.495,-0.718 -2.92,-1.59 -4.241,-2.588 -7.534,-5.716 -12.214,-16.621 -7.298,-25.502"
     id="path3261"
     inkscape:connector-curvature="0"
     style="fill:#0868ac;fill-rule:nonzero" />
  <text
     xml:space="preserve"
     style="font-size:115.54437256px;font-style:normal;font-variant:normal;font-weight:bold;font-stretch:normal;line-height:125%;letter-spacing:0px;word-spacing:0px;fill:#131b28;fill-opacity:1;stroke:none;font-family:Source Code Pro;-inkscape-font-specification:Source Code Pro Bold"
     x="-318.57678"
     y="166.68733"
     id="text3047-1"
     sodipodi:linespacing="125%"
     transform="matrix(0.35427944,-0.9351396,-0.9351396,-0.35427944,0,0)"><tspan
       sodipodi:role="line"
       id="tspan3049"
       x="-318.57678"
       y="166.68733">∞</tspan></text>
  <rect
     style="fill:#131b28;fill-opacity:1;fill-rule:nonzero;stroke:none"
     id="rect3821"
     width="28.796032"
     height="3.7560043"
     x="46.298855"
     y="374.37741"
     transform="matrix(0.65009897,0.75984954,-0.75984954,0.65009897,0,0)" />
  <path
     id="path3965"
     d="m -216.35019,282.24678 c -2.3344,0.0582 -4.48622,0.47356 -6.5,1.1875 -5.37016,1.90395 -9.10486,5.48876 -11.15625,10.78125 -1.50896,3.74515 -1.93904,7.41928 -1.3125,11.03125 0.62224,3.58761 2.64208,7.65822 6.03125,12.1875 0.0231,0.0308 0.0393,0.0629 0.0625,0.0937 l 6.90625,8.0625 c 0.0108,-8.1e-4 0.0204,8e-4 0.0312,0 2.16505,2.18711 3.54602,4.21377 4.125,6.0625 0.57888,1.84874 0.56282,3.53138 -0.0625,5.09375 -0.73365,1.82768 -1.87588,2.99353 -3.40625,3.5 -1.53045,0.50647 -3.25049,0.42378 -5.125,-0.28125 -1.89416,-0.74848 -3.30974,-1.95922 -4.28125,-3.59375 -0.97158,-1.63453 -1.13862,-3.39182 -0.5,-5.28125 0.59737,-1.62444 1.63229,-2.88244 3.125,-3.8125 0.54275,-0.33818 1.18666,-0.60229 1.875,-0.84375 l -6.46875,-7.59375 c -1.89814,0.63655 -3.63399,1.49364 -5.21875,2.59375 -2.53567,1.7602 -4.46527,4.29363 -5.75,7.5625 -1.51906,4.4852 -1.03457,8.8378 1.40625,13.0625 2.44078,4.22469 6.14444,7.33844 11.125,9.34375 6.83012,2.49751 12.68468,2.86085 17.59375,1.09375 4.90896,-1.76713 8.40625,-5.29252 10.46875,-10.59375 1.24182,-3.33918 1.52341,-6.48233 0.84375,-9.4375 -0.67979,-2.95516 -2.1612,-5.80483 -4.4375,-8.5 l 0.0312,-0.0937 -6.90625,-8.0625 -0.0312,0 c -1.16632,-1.21198 -2.14913,-2.39705 -3,-3.53125 -1.15413,-1.53844 -2.05126,-3.0109 -2.625,-4.40625 -0.99682,-2.42401 -1.03328,-4.82139 -0.125,-7.21875 0.99844,-2.42488 2.58572,-4.0177 4.75,-4.75 2.16418,-0.73222 4.44319,-0.63623 6.84375,0.25 2.93233,1.14702 4.92698,2.76485 6,4.90625 1.07289,2.14147 1.12354,4.55261 0.15625,7.1875 -0.70601,1.89739 -2.03007,3.47054 -4,4.75 -1.08444,0.70432 -2.40101,1.28786 -3.90625,1.78125 l 6.65625,7.78125 c 3.00172,-0.96117 5.51562,-2.206 7.53125,-3.75 2.79239,-2.13908 4.86476,-5.04581 6.21875,-8.6875 1.77268,-5.03256 1.41031,-9.9066 -1.125,-14.65625 -2.53546,-4.74957 -6.83184,-8.32815 -12.84375,-10.75 -4.78127,-1.72447 -9.10934,-2.56576 -13,-2.46875 z"
     style="font-size:115.54437256px;font-style:normal;font-variant:normal;font-weight:bold;font-stretch:normal;line-height:125%;letter-spacing:0px;word-spacing:0px;fill:#131b28;fill-opacity:1;stroke:none;font-family:Source Code Pro;-inkscape-font-specification:Source Code Pro Bold"
     inkscape:connector-curvature="0" />
  <g
     id="g3090">
    <path
       style="fill:#131b28;fill-rule:nonzero"
       inkscape:connector-curvature="0"
       id="path3165"
       d="m 259.74098,282.61715 0.001,-0.005 c 0,0 -3.352,11.88 -3.352,11.88 0,0 3.3508,-11.875 3.3508,-11.875 z" />
    <path
       style="fill:#131b28;fill-rule:nonzero"
       inkscape:connector-curvature="0"
       id="path3167"
       d="m 276.98098,308.40815 c 0,0 -3.6938,-0.022 -3.6938,-0.022 0,0 3.6938,0.022 3.6938,0.022 z" />
    <path
       style="fill:#131b28;fill-rule:nonzero"
       inkscape:connector-curvature="0"
       id="path3169"
       d="m 276.03098,326.14915 h 0.004 c 0,0 -22.131,0.0806 -22.131,0.0806 0,0 22.128,-0.0806 22.128,-0.0806 z" />
    <path
       style="fill:#131b28;fill-rule:nonzero"
       inkscape:connector-curvature="0"
       id="path3171"
       d="m 280.67098,308.43015 c 0,0 -3.6951,-0.022 -3.6951,-0.022 0,0 3.6951,0.022 3.6951,0.022 z" />
    <path
       style="fill:#131b28;fill-rule:nonzero"
       inkscape:connector-curvature="0"
       id="path3173"
       d="m 277.97098,324.64115 c 0,0 3.855,-14.702 3.855,-14.702 0,0 -3.855,14.705 -3.855,14.705 v -0.002 z" />
    <path
       style="fill:#131b28;fill-rule:nonzero"
       inkscape:connector-curvature="0"
       id="path3175"
       d="m 359.45098,256.93615 c 0,0 -7.1814,33.76 -7.1814,33.76 0,0 7.1814,-33.76 7.1814,-33.76 z" />
    <path
       style="fill:#131b28;fill-rule:nonzero"
       inkscape:connector-curvature="0"
       id="path3177"
       d="m 340.99098,256.93615 c 0,0 -5.4517,25.22 -5.4517,25.22 0,0 5.4517,-25.222 5.4517,-25.222 v 0.002 z" />
    <path
       style="fill:#131b28;fill-rule:nonzero"
       inkscape:connector-curvature="0"
       id="path3179"
       d="m 358.22098,255.41715 h -15.356 c -0.85205,0 -1.698,0.68359 -1.8799,1.5161 0,0 -5.4516,25.222 -5.4516,25.222 0,0 -5.4517,25.222 -5.4517,25.222 -0.18066,0.83251 -1.0254,1.5137 -1.8774,1.5137 h -9.3176 -1.5515 c -10.753,0 -9.5093,-7.4365 -7.3071,-17.627 0.022,-0.1025 0.044,-0.20263 0.0659,-0.30761 0,0 0.24169,-1.2842 0.24169,-1.2842 0.0146,-0.083 0.0317,-0.16603 0.0451,-0.2417 0,0 0.49072,-2.6148 0.49072,-2.6148 0,0 0.52612,-2.8027 0.52612,-2.8027 0.15992,-0.84473 0.40283,-2.0801 0.56153,-2.8564 0,0 2.478,-12.109 2.478,-12.109 0,0 2.4805,-12.109 2.4805,-12.109 0.1709,-0.83496 -0.38819,-1.521 -1.2402,-1.521 h -15.762 c -0.85206,0 -1.6956,0.68604 -1.8701,1.5186 0,0 -3.3887,16.079 -3.3887,16.079 0,0 -3.3887,16.077 -3.3887,16.077 -0.003,0.007 -0.004,0.0171 -0.005,0.0244 0,0 -0.31494,1.4942 -0.31494,1.4942 -3.9038,17.822 -2.8686,34.817 18.347,35.349 0.3467,0.01 0.61525,0.0125 0.61525,0.0125 h 33.302 c 0.85206,0 1.6956,-0.6836 1.8738,-1.5186 0,0 7.1814,-33.757 7.1814,-33.757 0,0 7.1814,-33.76 7.1814,-33.76 0.17701,-0.83497 -0.37598,-1.5186 -1.228,-1.5186 z" />
    <path
       style="fill:#131b28;fill-rule:nonzero"
       inkscape:connector-curvature="0"
       id="path3181"
       d="m 419.48098,309.06715 c 0.85327,0 1.4111,0.6836 1.2402,1.5186 0,0 -1.4917,7.2876 -1.4917,7.2876" />
    <path
       style="fill:#131b28;fill-rule:nonzero"
       inkscape:connector-curvature="0"
       id="path3183"
       d="m 417.74098,325.16515 c 0,0 1.4905,-7.2925 1.4905,-7.2925 0,0 -1.4917,7.2949 -1.4917,7.2949 0,-0.002 9.9e-4,-0.002 9.9e-4,-0.002 z" />
    <path
       style="fill:#131b28;fill-rule:nonzero"
       inkscape:connector-curvature="0"
       id="path3185"
       d="m 415.87098,326.69915 c 0.002,0 0.005,-0.002 0.007,-0.002 -4.519,0.0366 -18.099,0.13916 -28.306,0.13916 12.422,0 28.298,-0.13672 28.298,-0.13672 z" />
    <path
       style="fill:#131b28;fill-rule:nonzero"
       inkscape:connector-curvature="0"
       id="path3187"
       d="m 378.41098,299.68015 c -0.0125,-0.79835 0.896,-2.1729 1.7493,-2.1729 0,0 -1.9177,-0.0317 -1.9177,-0.0317 -0.86426,8.6914 0.16845,2.2046 0.16845,2.2046 z" />
    <path
       style="fill:#131b28;fill-rule:nonzero"
       inkscape:connector-curvature="0"
       id="path3189"
       d="m 388.97098,326.83315 c -0.0976,0 -0.19775,0 -0.29542,0.002 0.0976,-0.002 0.19777,-0.002 0.29542,-0.002 z" />
    <path
       style="fill:#131b28;fill-rule:nonzero"
       inkscape:connector-curvature="0"
       id="path3191"
       d="m 419.48098,309.06715 c 0.85327,0 1.4111,0.6836 1.2402,1.5186 0,0 -1.4917,7.2876 -1.4917,7.2876 0,0 -0.24293,1.189 -0.24293,1.189" />
    <path
       style="fill:#131b28;fill-rule:nonzero"
       inkscape:connector-curvature="0"
       id="path3193"
       d="m 396.24098,326.81615 h -0.0623 0.0623 z" />
    <path
       style="fill:#131b28;fill-rule:nonzero"
       inkscape:connector-curvature="0"
       id="path3195"
       d="m 392.47098,326.82815 h -0.21852 0.21852 z" />
    <path
       style="fill:#131b28;fill-rule:nonzero"
       inkscape:connector-curvature="0"
       id="path3197"
       d="m 391.32098,326.83115 c -0.12201,0 -0.2417,0 -0.36134,0.002 0.11963,-0.002 0.23927,-0.002 0.36134,-0.002 z" />
    <path
       style="fill:#131b28;fill-rule:nonzero"
       inkscape:connector-curvature="0"
       id="path3199"
       d="m 390.15098,326.83315 h -0.31737 0.31737 z" />
    <path
       style="fill:#131b28;fill-rule:nonzero"
       inkscape:connector-curvature="0"
       id="path3201"
       d="m 392.25098,326.82815 c -0.31127,0 -0.62255,0.002 -0.93016,0.002 0.30761,0 0.61889,-0.002 0.93016,-0.002 z" />
    <path
       style="fill:#131b28;fill-rule:nonzero"
       inkscape:connector-curvature="0"
       id="path3203"
       d="m 396.18098,326.81615 c -1.2427,0.005 -2.4829,0.01 -3.7048,0.0125 1.2219,-0.002 2.4634,-0.007 3.7048,-0.0125 z" />
    <path
       style="fill:#131b28;fill-rule:nonzero"
       inkscape:connector-curvature="0"
       id="path3205"
       d="m 415.88098,326.69615 h 10e-4 c -3.3118,0.0269 -11.49,0.0879 -19.646,0.11963 8.1518,-0.0292 16.332,-0.0927 19.645,-0.11963 z" />
    <path
       style="fill:#131b28;fill-rule:nonzero"
       inkscape:connector-curvature="0"
       id="path3207"
       d="m 417.74098,325.16815 c 0,0 1.2488,-6.106 1.2488,-6.106 0,0 -1.25,6.1108 -1.25,6.1108 0,-0.002 10e-4,-0.002 10e-4,-0.005 z" />
    <path
       style="fill:#131b28;fill-rule:nonzero"
       inkscape:connector-curvature="0"
       id="path3209"
       d="m 390.96098,326.83315 h -0.81054 0.81054 z" />
    <path
       style="fill:#131b28;fill-rule:nonzero"
       inkscape:connector-curvature="0"
       id="path3211"
       d="m 388.67098,326.83515 h -1.0962 1.0962 z" />
    <path
       style="fill:#131b28;fill-rule:nonzero"
       inkscape:connector-curvature="0"
       id="path3213"
       d="m 389.83098,326.83315 h -0.86426 0.86426 z" />
    <path
       style="fill:#131b28;fill-rule:nonzero"
       inkscape:connector-curvature="0"
       id="path3215"
       d="m 165.20098,299.86315 c 0,0 2.3852,-10.574 2.3852,-10.574 0,0 -2.727,12.087 -2.727,12.087 0,0 -2.6172,12.312 -2.6172,12.312 0,0 2.2937,-10.793 2.2937,-10.793 0.177,-0.83497 0.4773,-2.1997 0.66529,-3.0322 z" />
    <path
       style="fill:#131b28;fill-rule:nonzero"
       inkscape:connector-curvature="0"
       id="path3219"
       d="m 190.08098,278.71815 v -0.002 c 0,0 -4.9463,22.883 -4.9463,22.883 0,0 4.9463,-22.881 4.9463,-22.881 z" />
    <path
       style="fill:#131b28;fill-rule:nonzero"
       inkscape:connector-curvature="0"
       id="path3221"
       d="m 141.09098,354.53615 c 0,0 8.501,0.10988 13.905,0.10988 -4.1052,0 -10.885,-0.0756 -13.912,-0.11225 0.003,0 0.005,0.002 0.008,0.002 z" />
    <path
       style="fill:#131b28;fill-rule:nonzero"
       inkscape:connector-curvature="0"
       id="path3223"
       d="m 169.97098,278.71515 c 0,0 -2.3877,10.574 -2.3877,10.574 0,0 2.3877,-10.574 2.3877,-10.574 z" />
    <path
       style="fill:#131b28;fill-rule:nonzero"
       inkscape:connector-curvature="0"
       id="path3227"
       d="m 430.31098,325.97115 c -0.85205,0 -1.405,-0.6836 -1.2256,-1.5186 0,0 12.786,-59.89 12.786,-59.89" />
    <path
       style="fill:#131b28;fill-rule:nonzero"
       inkscape:connector-curvature="0"
       id="path3229"
       d="m 448.08098,324.45015 c 0,0 5.1709,-25.562 5.1709,-25.562 0,0 -5.1709,25.562 -5.1709,25.562 z" />
    <path
       style="fill:#131b28;fill-rule:nonzero"
       inkscape:connector-curvature="0"
       id="path3231"
       d="m 429.27098,325.21215 c -0.10375,-0.41749 -0.0428,-1.4404 0.13793,-2.2754 0,0 6.0681,-28.428 6.0681,-28.428 0,0 -6.3928,29.944 -6.3928,29.944 -0.17944,0.83495 0.37354,1.5186 1.2256,1.5186 h 1.5528 c -0.85328,0 -2.489,-0.3418 -2.5916,-0.75927 z" />
    <path
       style="fill:#131b28;fill-rule:nonzero"
       inkscape:connector-curvature="0"
       id="path3233"
       d="m 447.07098,325.62915 c -0.46388,0.18799 -1.543,0.3418 -2.3962,0.3418 h 1.5527 c 0.85205,0 1.6894,-0.6836 1.8579,-1.521 0,0 0.30761,-1.5186 0.30761,-1.5186 -0.16967,0.83496 -0.85692,2.5098 -1.322,2.6978 z" />
    <path
       style="fill:#131b28;fill-rule:nonzero"
       inkscape:connector-curvature="0"
       id="path3235"
       d="m 450.67098,311.66915 c 0,0 2.2827,-11.282 2.2827,-11.282 -0.001,0.007 -0.002,0.0171 -0.004,0.022 0,0 -2.279,11.26 -2.279,11.26 z" />
    <path
       style="fill:#131b28;fill-rule:nonzero"
       inkscape:connector-curvature="0"
       id="path3237"
       d="m 501.12098,268.57415 c 0,0 0.70434,2.9102 0.70434,2.9102 0.1941,0.83251 -0.34424,1.5088 -1.1951,1.5112" />
    <path
       style="fill:#131b28;fill-rule:nonzero"
       inkscape:connector-curvature="0"
       id="path3239"
       d="m 448.39098,322.93215 c 0,0 2.2766,-11.262 2.2766,-11.262 0,0 -2.2766,11.262 -2.2766,11.262 z" />
    <path
       style="fill:#131b28;fill-rule:nonzero"
       inkscape:connector-curvature="0"
       id="path3241"
       d="m 500.42098,265.59315 c 0,0 0.69703,2.981 0.69703,2.981 0,0 -0.69703,-2.981 -0.69703,-2.981 z" />
    <path
       style="fill:#131b28;fill-rule:nonzero"
       inkscape:connector-curvature="0"
       id="path3243"
       d="m 452.95098,300.38815 c 0.16969,-0.83496 0.45045,-2.1875 0.62746,-3.0151 0,0 2.4377,-11.421 2.4377,-11.421 0,0 -2.7612,12.937 -2.7612,12.937 0,0 -0.30397,1.499 -0.30397,1.499 z" />
    <path
       style="fill:#131b28;fill-rule:nonzero"
       inkscape:connector-curvature="0"
       id="path3245"
       d="m 442.08098,263.58115 c -0.16967,0.80567 -0.38696,1.8237 -0.53101,2.4976 0,0 -6.0681,28.43 -6.0681,28.43 0,0 6.3928,-29.946 6.3928,-29.946 0,0 0.2063,-0.98145 0.2063,-0.98145 z" />
    <path
       style="fill:#131b28;fill-rule:nonzero"
       inkscape:connector-curvature="0"
       id="path3247"
       d="m 501.82098,271.48415 c 0,0 -0.70434,-2.9102 -0.70434,-2.9102 0,0 -0.69703,-2.981 -0.69703,-2.981 0,0 -0.35278,-1.5088 -0.35278,-1.5088 -1.3806,-5.3638 -5.4334,-8.4595 -14.233,-8.4595 0,0 -13.7,-0.0146 -13.7,-0.0146 0,0 -12.617,-0.0146 -12.617,-0.0146 h -1.0828 -13.114 c -0.85205,0 -1.6956,0.68115 -1.8713,1.5161 h -0.001 c 0,0 -0.62743,2.9663 -0.62743,2.9663 0,0 -0.74096,3.5034 -0.74096,3.5034 0,0 -0.2063,0.98145 -0.2063,0.98145 0,0 -6.3928,29.946 -6.3928,29.946 0,0 -6.0681,28.428 -6.0681,28.428 -0.18065,0.83496 -0.24169,1.8579 -0.13792,2.2754 0.1025,0.41747 1.7383,0.75927 2.5915,0.75927 h 12.808 c 0.85327,0 1.9324,-0.15381 2.3962,-0.3418 0.46508,-0.18799 1.1523,-1.8628 1.322,-2.6978 0,0 2.2766,-11.262 2.2766,-11.262 0,0 2.279,-11.26 2.279,-11.26 10e-4,-0.005 0.002,-0.0146 0.004,-0.022 0,0 0.30396,-1.499 0.30396,-1.499 0,0 2.7612,-12.937 2.7612,-12.937 0,0 2.439,-11.426 2.439,-11.426 0.18068,-0.83007 1.0205,-1.5088 1.8713,-1.5112 0,0 40.3,-0.0195 40.3,-0.0195 0.85083,-0.002 1.3892,-0.67872 1.1951,-1.5112 z" />
    <path
       style="fill:#131b28;fill-rule:nonzero"
       inkscape:connector-curvature="0"
       id="path3249"
       d="m 553.70098,245.17055 c -0.85326,0.006 -2.2485,0.0113 -3.1018,0.0113 h -12.899 c -0.85328,0 -1.9458,0.57618 -2.4268,1.2805 0,0 -28.523,41.787 -28.523,41.787 -0.48218,0.70557 -1.0315,0.60059 -1.2207,-0.22949 0,0 -2.0984,-9.2065 -2.0984,-9.2065 -0.18921,-0.83252 -1.0437,-1.5112 -1.8958,-1.5112 h -18.337 c -0.85327,0 -1.3586,0.66895 -1.1255,1.4893 0,0 8.2166,28.784 8.2166,28.784 0.23437,0.82032 0.25147,2.168 0.0403,2.9932 0,0 -3.5815,13.931 -3.5815,13.931 -0.2124,0.82764 0.3125,1.5039 1.1658,1.5039 h 18.123 c 0.85205,0 1.7236,-0.67627 1.9348,-1.5039 0,0 3.5828,-13.931 3.5828,-13.931 0.21119,-0.82519 0.80445,-2.0605 1.3184,-2.7417 0,0 46.306,-61.459 46.306,-61.459 0.51393,-0.68115 0.2356,-1.2354 -0.61645,-1.2292 0,0 -4.8608,0.0317 -4.8608,0.0317 z" />
    <path
       style="fill:#131b28;fill-rule:nonzero"
       inkscape:connector-curvature="0"
       id="path3251"
       d="m 408.02098,281.22015 c 0,0 -0.001,-0.0171 -0.001,-0.0171 -0.10737,0.92528 -0.96069,1.604 -1.8128,1.604 h -23.248 c -0.80323,0 -1.2122,-0.54688 -1.0938,-1.2207 0.007,-0.0195 0.01,-0.0366 0.022,-0.0537 0,0 -0.008,0.002 -0.0146,0.007 0.005,-0.0269 0.005,-0.0512 0.0125,-0.0781 0,0 0.044,-0.16358 0.10625,-0.39552 2.2204,-5.9033 6.7432,-9.7778 15.243,-9.7778 9.5691,0 11.437,4.6753 10.787,9.9316 z m -6.8201,-26.834 c -29.841,0 -36.912,18.113 -40.879,36.394 -3.9673,18.633 -3.6255,36.055 27.253,36.055 h 1.0962 c 0.0976,-0.002 0.19777,-0.002 0.29542,-0.002 h 0.86426 0.31737 0.81055 c 0.11963,-0.002 0.23927,-0.002 0.36133,-0.002 0.30762,0 0.6189,-0.002 0.93017,-0.002 h 0.21852 c 1.2219,-0.002 2.4622,-0.008 3.7048,-0.0125 h 0.0623 c 8.1555,-0.0317 16.334,-0.0927 19.647,-0.11962 0.84717,-0.0125 1.676,-0.6958 1.8506,-1.5234 0,0 1.25,-6.1108 1.25,-6.1108 0,0 0.24293,-1.189 0.24293,-1.189 0,0 1.4917,-7.2876 1.4917,-7.2876 0.1709,-0.83496 -0.38696,-1.5186 -1.2402,-1.5186 h -27.761 c -11.041,0 -14.32,-2.9346 -13.112,-11.56 h 44.377 c 0,0 -0.004,0.005 -0.004,0.005 0.0113,0 0.0208,-0.005 0.0305,-0.005 0.70556,-0.0125 1.3574,-0.49804 1.6162,-1.145 0.0489,-0.1245 0.0904,-0.25391 0.10737,-0.38818 0,0 -0.005,0.005 -0.005,0.005 6.5894,-24.854 4.6997,-41.592 -23.528,-41.592 z" />
    <path
       style="fill:#131b28;fill-rule:nonzero"
       inkscape:connector-curvature="0"
       id="path3253"
       d="m 260.16098,281.12515 c 0,0 -0.41993,1.4868 -0.41993,1.4868 0,0.005 -10e-4,0.005 -10e-4,0.005 0,0 -3.3508,11.875 -3.3508,11.875 0,0 -3.3496,11.873 -3.3496,11.873 -0.23193,0.82031 -1.1182,1.4917 -1.9727,1.4917 h -17.736 c -13.453,0 -16.729,-10.522 -13.453,-26.042 3.2752,-15.874 9.6973,-25.742 22.938,-26.741 18.094,-1.3648 21.714,11.362 17.345,26.052 z m 12.163,25.818 c 0,0 8.3618,-20.303 10.261,-32.031 2.59,-15.699 -5.27,-38.466 -35.63,-38.466 -30.187,0 -43.295,21.737 -48.297,45.367 -5.0012,23.801 1.5515,44.675 31.567,44.504 0,0 23.679,-0.0879 23.679,-0.0879 0,0 22.131,-0.0806 22.131,-0.0806 0.85205,-0.007 1.7236,-0.6836 1.9409,-1.5064 0,0 3.855,-14.705 3.855,-14.705 0.21485,-0.8252 -0.30639,-1.5039 -1.1584,-1.5088 0,0 -3.6951,-0.022 -3.6951,-0.022 0,0 -3.6938,-0.022 -3.6938,-0.022 -0.7251,-0.005 -1.1401,-0.47364 -1.0522,-1.0962 0.0159,-0.11225 0.0415,-0.22705 0.0904,-0.34668 z" />
    <path
       style="fill:#131b28;fill-rule:nonzero"
       inkscape:connector-curvature="0"
       id="path3255"
       d="m 421.76098,293.35415 c 0,0.56153 -0.45532,1.0181 -1.0181,1.0181 -0.56152,0 -1.0181,-0.45654 -1.0181,-1.0181 0,-0.56152 0.45655,-1.0156 1.0181,-1.0156 0.56274,0 1.0181,0.4541 1.0181,1.0156 z" />
    <path
       inkscape:connector-curvature="0"
       id="text3047"
       d="m 161.9668,264.97594 c -2.37936,0.17373 -4.55739,0.76325 -6.58202,1.70114 -5.39913,2.50112 -9.05893,6.92458 -10.92949,13.30007 -1.38213,4.51406 -1.6665,8.8955 -0.87539,13.15578 0.78569,4.23154 3.01765,8.97391 6.66602,14.19949 0.0248,0.0355 0.0428,0.0728 0.0678,0.10837 l 7.38538,9.26281 c 0.01,-0.001 0.0209,-6.6e-4 0.0321,-0.002 2.30096,2.49965 3.79517,4.84396 4.46361,7.01292 0.66836,2.16901 0.72271,4.16746 0.15041,6.0504 -0.67171,2.20283 -1.78815,3.63819 -3.32826,4.30807 -1.54024,0.6699 -3.29866,0.64879 -5.24087,-0.10427 -1.96405,-0.80376 -3.4593,-2.17779 -4.51923,-4.07486 -1.06002,-1.89709 -1.30431,-3.97596 -0.73206,-6.24784 0.5412,-1.9554 1.54425,-3.49535 3.02816,-4.66646 0.53955,-0.42583 1.18543,-0.76824 1.87757,-1.08576 l -6.91928,-8.72591 c -1.9099,0.84082 -3.64497,1.93618 -5.21564,3.31333 -2.51315,2.20342 -4.3754,5.29774 -5.54879,9.23631 -1.36136,5.39317 -0.68403,10.53913 1.98392,15.44558 2.66793,4.90644 6.57766,8.43729 11.74363,10.59494 7.07375,2.65915 13.06243,2.82817 17.99687,0.51019 4.93429,-2.31801 8.35437,-6.66028 10.2359,-13.04665 1.12665,-4.02012 1.2818,-7.76449 0.46414,-11.24258 -0.81783,-3.47809 -2.4491,-6.79502 -4.88493,-9.89289 l 0.028,-0.11267 -7.38539,-9.26282 -0.032,0.002 c -1.24093,-1.38669 -2.29351,-2.74962 -3.20932,-4.05808 -1.24224,-1.7748 -2.21949,-3.4828 -2.86354,-5.11375 -1.11896,-2.83325 -1.25694,-5.67792 -0.43098,-8.56494 0.91676,-2.92368 2.46932,-4.88591 4.64674,-5.85234 2.17733,-0.9663 4.50663,-0.95446 6.99318,-0.01 3.04008,1.23043 5.14323,3.06182 6.32805,5.55612 1.18469,2.49442 1.33772,5.35481 0.46158,8.52645 -0.64058,2.28435 -1.92539,4.21141 -3.88151,5.81874 -1.07685,0.88481 -2.39561,1.63662 -3.91066,2.28986 l 7.11847,8.94009 c 3.02225,-1.27566 5.53485,-2.86626 7.52647,-4.7897 2.75917,-2.66479 4.75142,-6.2087 5.97978,-10.59298 1.59711,-6.0544 1.02249,-11.82494 -1.76409,-17.35038 -2.78658,-5.52538 -7.32062,-9.58156 -13.55635,-12.18753 -4.95084,-1.83314 -9.40215,-2.63803 -13.36768,-2.34851 z"
       style="font-size:115.54437256px;font-style:normal;font-variant:normal;font-weight:bold;font-stretch:normal;line-height:125%;letter-spacing:0px;word-spacing:0px;fill:#131b28;fill-opacity:1;stroke:none;font-family:Source Code Pro;-inkscape-font-specification:Source Code Pro Bold" />
    <text
       sodipodi:linespacing="125%"
       id="text3967"
       y="343.51193"
       x="40.124142"
       style="font-size:213.724823px;font-style:normal;font-variant:normal;font-weight:normal;font-stretch:normal;text-align:start;line-height:125%;letter-spacing:0px;word-spacing:0px;writing-mode:lr-tb;text-anchor:start;fill:#0868ac;fill-opacity:1;stroke:none;font-family:OCR A Std;-inkscape-font-specification:OCR A Std"
       xml:space="preserve"><tspan
         id="tspan3971"
         y="343.51193"
         x="40.124142"
         sodipodi:role="line">?</tspan></text>
  </g>
  <text
     sodipodi:linespacing="125%"
     id="text3975"
     y="305.96133"
     x="-192.24957"
     style="font-size:99.0027771px;font-style:normal;font-variant:normal;font-weight:normal;font-stretch:normal;text-align:start;line-height:125%;letter-spacing:0px;word-spacing:0px;writing-mode:lr-tb;text-anchor:start;fill:#0868ac;fill-opacity:1;stroke:none;font-family:Traditional Arabic;-inkscape-font-specification:Traditional Arabic"
     xml:space="preserve"><tspan
       id="tspan3977"
       y="305.96133"
       x="-192.24957"
       sodipodi:role="line">?</tspan></text>
  <text
     sodipodi:linespacing="125%"
     id="text3991"
     y="179.79524"
     x="-300.78546"
     style="font-size:99.0027771px;font-style:normal;font-variant:normal;font-weight:900;font-stretch:normal;text-align:start;line-height:125%;letter-spacing:0px;word-spacing:0px;writing-mode:lr-tb;text-anchor:start;fill:#0868ac;fill-opacity:1;stroke:none;font-family:Cooper Std Black;-inkscape-font-specification:'Cooper Std Black, Heavy'"
     xml:space="preserve"><tspan
       id="tspan3993"
       y="179.79524"
       x="-300.78546"
       sodipodi:role="line">?</tspan></text>
  <text
     sodipodi:linespacing="125%"
     id="text3991-7"
     y="148.50047"
     x="-224.5779"
     style="font-size:99.0027771px;font-style:normal;font-variant:normal;font-weight:900;font-stretch:normal;text-align:start;line-height:125%;letter-spacing:0px;word-spacing:0px;writing-mode:lr-tb;text-anchor:start;fill:#0868ac;fill-opacity:1;stroke:none;font-family:Cooper Std Black;-inkscape-font-specification:'Cooper Std Black, Heavy'"
     xml:space="preserve"><tspan
       id="tspan3993-4"
       y="148.50047"
       x="-224.5779"
       sodipodi:role="line">?</tspan></text>
</svg>
